<svg width="192" height="192" viewBox="0 0 192 192" xmlns="http://www.w3.org/2000/svg">
  <defs>
    <linearGradient id="bgGradient" x1="0%" y1="0%" x2="100%" y2="100%">
      <stop offset="0%" style="stop-color:#1e40af;stop-opacity:1" />
      <stop offset="100%" style="stop-color:#3b82f6;stop-opacity:1" />
    </linearGradient>
  </defs>
  
  <!-- Background -->
  <rect width="192" height="192" fill="url(#bgGradient)" rx="24"/>
  
  <!-- Canvas grid representation -->
  <g transform="translate(24, 24)">
    <!-- Grid lines -->
    <line x1="0" y1="48" x2="144" y2="48" stroke="white" stroke-width="1" opacity="0.3"/>
    <line x1="0" y1="96" x2="144" y2="96" stroke="white" stroke-width="1" opacity="0.3"/>
    <line x1="48" y1="0" x2="48" y2="144" stroke="white" stroke-width="1" opacity="0.3"/>
    <line x1="96" y1="0" x2="96" y2="144" stroke="white" stroke-width="1" opacity="0.3"/>
    
    <!-- Business icon -->
    <circle cx="72" cy="72" r="32" fill="white" opacity="0.9"/>
    <path d="M56 64 L88 64 L88 80 L56 80 Z M60 68 L84 68 M60 72 L84 72 M60 76 L84 76" stroke="#1e40af" stroke-width="2" fill="none"/>
    
    <!-- AI sparkles -->
    <circle cx="32" cy="32" r="2" fill="white"/>
    <circle cx="112" cy="32" r="2" fill="white"/>
    <circle cx="32" cy="112" r="2" fill="white"/>
    <circle cx="112" cy="112" r="2" fill="white"/>
  </g>
  
  <!-- Text -->
  <text x="96" y="168" text-anchor="middle" fill="white" font-family="Arial, sans-serif" font-size="14" font-weight="bold">BMC</text>
</svg>